<svg xmlns="http://www.w3.org/2000/svg" version="1.1" xmlns:xlink="http://www.w3.org/1999/xlink" xmlns:svgjs="http://svgjs.dev/svgjs" width="1000" height="623" viewBox="0 0 1000 623"><g transform="matrix(1,0,0,1,-0.6060606060606233,0.2522267206477409)"><svg viewBox="0 0 396 247" data-background-color="#636365" preserveAspectRatio="xMidYMid meet" height="623" width="1000" xmlns="http://www.w3.org/2000/svg" xmlns:xlink="http://www.w3.org/1999/xlink"><g id="tight-bounds" transform="matrix(1,0,0,1,0.2400000000000091,-0.09999999999999432)"><svg viewBox="0 0 395.52 247.2" height="247.2" width="395.52"><g><svg></svg></g><g><svg viewBox="0 0 395.52 247.2" height="247.2" width="395.52"><g transform="matrix(1,0,0,1,75.54432,83.71362911632919)"><svg viewBox="0 0 244.43135999999998 79.77274176734161" height="79.77274176734161" width="244.43135999999998"><g><svg viewBox="0 0 244.43135999999998 79.77274176734161" height="79.77274176734161" width="244.43135999999998"><g><svg viewBox="0 0 244.43135999999998 79.77274176734161" height="79.77274176734161" width="244.43135999999998"><g><svg viewBox="0 0 244.43135999999998 79.77274176734161" height="79.77274176734161" width="244.43135999999998"><g><svg viewBox="0 0 244.43135999999998 79.77274176734161" height="79.77274176734161" width="244.43135999999998"><g><svg viewBox="0 0 244.43135999999998 43.02560508163722" height="43.02560508163722" width="244.43135999999998"><g transform="matrix(1,0,0,1,0,0)"><svg width="244.43135999999998" viewBox="0.35 -38.7 223.53 39.35" height="43.02560508163722" data-palette-color="#ffffff"><path d="M25.95 0L21.15 0 18.85-8.75 7.3-8.75 5 0 0.35 0 10.3-34.4 16-34.4 25.95 0ZM13.1-30.7L8.25-12.4 17.9-12.4 13.1-30.7ZM35.3 0.65Q32.9 0.65 31.5-0.8 30.1-2.25 30.1-4.85L30.1-4.85 30.1-36.95 34.6-37.45 34.6-5Q34.6-3.05 36.2-3.05L36.2-3.05Q36.85-3.05 37.65-3.35L37.65-3.35 38.65-0.2Q37.05 0.65 35.3 0.65L35.3 0.65ZM43.55-26.3L48.05-26.3 48.05 0 43.55 0 43.55-26.3ZM45.8-38.7Q47.1-38.7 47.92-37.85 48.75-37 48.75-35.75L48.75-35.75Q48.75-34.5 47.95-33.68 47.15-32.85 45.8-32.85L45.8-32.85Q44.5-32.85 43.67-33.68 42.85-34.5 42.85-35.75L42.85-35.75Q42.85-37 43.67-37.85 44.5-38.7 45.8-38.7L45.8-38.7ZM76.24-35.05Q79.29-35.05 81.57-34.05 83.84-33.05 85.84-31.05L85.84-31.05 83.49-28.4Q81.79-29.9 80.12-30.63 78.44-31.35 76.49-31.35L76.49-31.35Q73.99-31.35 72.47-29.98 70.94-28.6 70.94-26.35L70.94-26.35Q70.94-24.85 71.54-23.78 72.14-22.7 73.59-21.83 75.04-20.95 77.69-20.05L77.69-20.05Q80.74-18.95 82.69-17.7 84.64-16.45 85.69-14.5 86.74-12.55 86.74-9.6L86.74-9.6Q86.74-6.65 85.39-4.33 84.04-2 81.52-0.68 78.99 0.65 75.59 0.65L75.59 0.65Q69.34 0.65 64.94-3.85L64.94-3.85 67.39-6.5Q69.24-4.85 71.17-3.98 73.09-3.1 75.44-3.1L75.44-3.1Q78.39-3.1 80.17-4.78 81.94-6.45 81.94-9.4L81.94-9.4Q81.94-11.95 80.52-13.45 79.09-14.95 75.29-16.25L75.29-16.25Q70.44-17.95 68.32-20.2 66.19-22.45 66.19-26.05L66.19-26.05Q66.19-28.6 67.47-30.68 68.74-32.75 71.04-33.9 73.34-35.05 76.24-35.05L76.24-35.05ZM101.84-26.95Q106.89-26.95 109.69-23.4 112.49-19.85 112.49-13.2L112.49-13.2Q112.49-6.8 109.64-3.08 106.79 0.65 101.79 0.65L101.79 0.65Q96.74 0.65 93.91-3 91.09-6.65 91.09-13.15L91.09-13.15Q91.09-19.7 93.94-23.33 96.79-26.95 101.84-26.95L101.84-26.95ZM101.84-23.35Q98.89-23.35 97.34-20.88 95.79-18.4 95.79-13.15L95.79-13.15Q95.79-2.9 101.79-2.9L101.79-2.9Q107.79-2.9 107.79-13.2L107.79-13.2Q107.79-18.45 106.29-20.9 104.79-23.35 101.84-23.35L101.84-23.35ZM118.99-36.95L123.49-37.45 123.49 0 118.99 0 118.99-36.95ZM132.64-26.3L137.34-26.3 128.44-14.6 138.19 0 133.19 0 123.74-14.4 132.64-26.3ZM166.58-26.95Q169.43-26.95 171.13-24.83 172.83-22.7 172.83-19.15L172.83-19.15 172.83 0 168.38 0 168.38-18.65Q168.38-23.45 165.28-23.45L165.28-23.45Q162.28-23.45 159.78-18.85L159.78-18.85 159.78 0 155.33 0 155.33-18.65Q155.33-23.45 152.23-23.45L152.23-23.45Q149.18-23.45 146.73-18.85L146.73-18.85 146.73 0 142.28 0 142.28-26.3 146.18-26.3 146.53-22.45Q149.43-26.95 153.53-26.95L153.53-26.95Q155.68-26.95 157.18-25.7 158.68-24.45 159.33-22.15L159.33-22.15Q162.38-26.95 166.58-26.95L166.58-26.95ZM199.18-13.95Q199.18-12.9 199.08-11.6L199.08-11.6 183.78-11.6Q183.98-7 185.63-4.98 187.28-2.95 190.13-2.95L190.13-2.95Q191.93-2.95 193.36-3.5 194.78-4.05 196.33-5.3L196.33-5.3 198.33-2.65Q194.63 0.65 189.93 0.65L189.93 0.65Q184.78 0.65 181.96-2.93 179.13-6.5 179.13-12.95L179.13-12.95Q179.13-19.4 181.83-23.18 184.53-26.95 189.33-26.95L189.33-26.95Q194.08-26.95 196.63-23.58 199.18-20.2 199.18-13.95L199.18-13.95ZM194.83-14.75L194.83-15.3Q194.83-23.55 189.38-23.55L189.38-23.55Q186.88-23.55 185.43-21.48 183.98-19.4 183.78-14.75L183.78-14.75 194.83-14.75ZM217.18-26.95Q220.33-26.95 222.1-24.88 223.88-22.8 223.88-19.15L223.88-19.15 223.88 0 219.38 0 219.38-18.6Q219.38-21.15 218.53-22.28 217.68-23.4 215.93-23.4L215.93-23.4Q212.63-23.4 209.93-18.7L209.93-18.7 209.93 0 205.43 0 205.43-26.3 209.33-26.3 209.68-22.4Q212.73-26.95 217.18-26.95L217.18-26.95Z" opacity="1" transform="matrix(1,0,0,1,0,0)" fill="#ffffff" class="undefined-text-0" data-fill-palette-color="primary" id="text-0"></path></svg></g></svg></g><g transform="matrix(1,0,0,1,0,53.182917826889806)"><svg viewBox="0 0 244.43135999999998 26.5898239404518" height="26.5898239404518" width="244.43135999999998"><g transform="matrix(1,0,0,1,0,0)"><svg width="244.43135999999998" viewBox="4.25 -40.35 467.91 50.900000000000006" height="26.5898239404518" data-palette-color="#ffffff"><path d="M4.25-34.4L21.35-34.4 20.8-30.8 8.9-30.8 8.9-19.45 19.25-19.45 19.25-15.85 8.9-15.85 8.9-3.65 21.5-3.65 21.5 0 4.25 0 4.25-34.4ZM36.86-26.95Q38.96-26.95 40.71-26.25 42.46-25.55 44.06-24.1L44.06-24.1 42.06-21.4Q40.86-22.35 39.66-22.83 38.46-23.3 37.06-23.3L37.06-23.3Q34.11-23.3 32.48-20.8 30.86-18.3 30.86-13L30.86-13Q30.86-3.1 37.06-3.1L37.06-3.1Q38.46-3.1 39.61-3.58 40.76-4.05 42.06-5L42.06-5 44.16-2.25Q40.96 0.65 36.91 0.65L36.91 0.65Q31.86 0.65 28.98-2.85 26.11-6.35 26.11-12.95L26.11-12.95Q26.11-17.25 27.43-20.4 28.76-23.55 31.18-25.25 33.61-26.95 36.86-26.95L36.86-26.95ZM58.46-26.95Q63.51-26.95 66.31-23.4 69.11-19.85 69.11-13.2L69.11-13.2Q69.11-6.8 66.26-3.08 63.41 0.65 58.41 0.65L58.41 0.65Q53.36 0.65 50.54-3 47.71-6.65 47.71-13.15L47.71-13.15Q47.71-19.7 50.56-23.33 53.41-26.95 58.46-26.95L58.46-26.95ZM58.46-23.35Q55.51-23.35 53.96-20.88 52.41-18.4 52.41-13.15L52.41-13.15Q52.41-2.9 58.41-2.9L58.41-2.9Q64.41-2.9 64.41-13.2L64.41-13.2Q64.41-18.45 62.91-20.9 61.41-23.35 58.46-23.35L58.46-23.35ZM87.57-26.95Q90.72-26.95 92.49-24.88 94.27-22.8 94.27-19.15L94.27-19.15 94.27 0 89.77 0 89.77-18.6Q89.77-21.15 88.92-22.28 88.07-23.4 86.32-23.4L86.32-23.4Q83.02-23.4 80.32-18.7L80.32-18.7 80.32 0 75.82 0 75.82-26.3 79.72-26.3 80.07-22.4Q83.12-26.95 87.57-26.95L87.57-26.95ZM111.52-26.95Q116.57-26.95 119.37-23.4 122.17-19.85 122.17-13.2L122.17-13.2Q122.17-6.8 119.32-3.08 116.47 0.65 111.47 0.65L111.47 0.65Q106.42 0.65 103.6-3 100.77-6.65 100.77-13.15L100.77-13.15Q100.77-19.7 103.62-23.33 106.47-26.95 111.52-26.95L111.52-26.95ZM111.52-23.35Q108.57-23.35 107.02-20.88 105.47-18.4 105.47-13.15L105.47-13.15Q105.47-2.9 111.47-2.9L111.47-2.9Q117.47-2.9 117.47-13.2L117.47-13.2Q117.47-18.45 115.97-20.9 114.47-23.35 111.52-23.35L111.52-23.35ZM153.18-26.95Q156.03-26.95 157.73-24.83 159.43-22.7 159.43-19.15L159.43-19.15 159.43 0 154.98 0 154.98-18.65Q154.98-23.45 151.88-23.45L151.88-23.45Q148.88-23.45 146.38-18.85L146.38-18.85 146.38 0 141.93 0 141.93-18.65Q141.93-23.45 138.83-23.45L138.83-23.45Q135.78-23.45 133.33-18.85L133.33-18.85 133.33 0 128.88 0 128.88-26.3 132.78-26.3 133.13-22.45Q136.03-26.95 140.13-26.95L140.13-26.95Q142.28-26.95 143.78-25.7 145.28-24.45 145.93-22.15L145.93-22.15Q148.98-26.95 153.18-26.95L153.18-26.95ZM167.53-26.3L172.03-26.3 172.03 0 167.53 0 167.53-26.3ZM169.78-38.7Q171.08-38.7 171.91-37.85 172.73-37 172.73-35.75L172.73-35.75Q172.73-34.5 171.93-33.68 171.13-32.85 169.78-32.85L169.78-32.85Q168.48-32.85 167.66-33.68 166.83-34.5 166.83-35.75L166.83-35.75Q166.83-37 167.66-37.85 168.48-38.7 169.78-38.7L169.78-38.7ZM187.14-26.95Q191.69-26.95 195.24-23.95L195.24-23.95 193.34-21.3Q191.74-22.4 190.34-22.95 188.94-23.5 187.39-23.5L187.39-23.5Q185.34-23.5 184.16-22.53 182.99-21.55 182.99-19.85L182.99-19.85Q182.99-18.2 184.11-17.25 185.24-16.3 188.39-15.3L188.39-15.3Q192.34-14.05 194.14-12.25 195.94-10.45 195.94-7.3L195.94-7.3Q195.94-3.6 193.24-1.48 190.54 0.65 186.49 0.65L186.49 0.65Q181.14 0.65 177.44-2.9L177.44-2.9 179.74-5.4Q182.89-2.85 186.39-2.85L186.39-2.85Q188.59-2.85 189.94-3.95 191.29-5.05 191.29-7L191.29-7Q191.29-8.4 190.81-9.25 190.34-10.1 189.11-10.78 187.89-11.45 185.54-12.2L185.54-12.2Q181.79-13.45 180.14-15.2 178.49-16.95 178.49-19.65L178.49-19.65Q178.49-21.75 179.59-23.4 180.69-25.05 182.64-26 184.59-26.95 187.14-26.95L187.14-26.95ZM212.69-4.05L214.34-1.15Q211.84 0.65 208.79 0.65L208.79 0.65Q205.59 0.65 203.87-1.2 202.14-3.05 202.14-6.4L202.14-6.4 202.14-22.9 198.39-22.9 198.39-26.3 202.14-26.3 202.14-32.35 206.64-32.9 206.64-26.3 212.44-26.3 211.94-22.9 206.64-22.9 206.64-6.45Q206.64-3.05 209.49-3.05L209.49-3.05Q210.34-3.05 211.07-3.3 211.79-3.55 212.69-4.05L212.69-4.05ZM230.85 4.3L241.45-40.35 245.25-39.5 234.65 5.15 230.85 4.3ZM273.26-34.4Q277.71-34.4 281.01-33.05 284.31-31.7 286.39-27.95 288.46-24.2 288.46-17.4L288.46-17.4Q288.46-7.7 284.34-3.85 280.21 0 273.91 0L273.91 0 266.16 0 266.16-34.4 273.26-34.4ZM273.96-30.75L270.81-30.75 270.81-3.6 274.21-3.6Q278.51-3.6 281.06-6.58 283.61-9.55 283.61-17.4L283.61-17.4Q283.61-22.9 282.29-25.85 280.96-28.8 278.89-29.78 276.81-30.75 273.96-30.75L273.96-30.75ZM313.67-13.95Q313.67-12.9 313.57-11.6L313.57-11.6 298.27-11.6Q298.47-7 300.12-4.98 301.77-2.95 304.62-2.95L304.62-2.95Q306.42-2.95 307.84-3.5 309.27-4.05 310.82-5.3L310.82-5.3 312.82-2.65Q309.12 0.65 304.42 0.65L304.42 0.65Q299.27 0.65 296.44-2.93 293.62-6.5 293.62-12.95L293.62-12.95Q293.62-19.4 296.32-23.18 299.02-26.95 303.82-26.95L303.82-26.95Q308.57-26.95 311.12-23.58 313.67-20.2 313.67-13.95L313.67-13.95ZM309.32-14.75L309.32-15.3Q309.32-23.55 303.87-23.55L303.87-23.55Q301.37-23.55 299.92-21.48 298.47-19.4 298.27-14.75L298.27-14.75 309.32-14.75ZM333.37-26.3L337.87-26.3 330.02 0 324.62 0 316.52-26.3 321.22-26.3 327.32-3.8 333.37-26.3ZM361.03-13.95Q361.03-12.9 360.93-11.6L360.93-11.6 345.63-11.6Q345.83-7 347.48-4.98 349.13-2.95 351.98-2.95L351.98-2.95Q353.78-2.95 355.21-3.5 356.63-4.05 358.18-5.3L358.18-5.3 360.18-2.65Q356.48 0.65 351.78 0.65L351.78 0.65Q346.63 0.65 343.81-2.93 340.98-6.5 340.98-12.95L340.98-12.95Q340.98-19.4 343.68-23.18 346.38-26.95 351.18-26.95L351.18-26.95Q355.93-26.95 358.48-23.58 361.03-20.2 361.03-13.95L361.03-13.95ZM356.68-14.75L356.68-15.3Q356.68-23.55 351.23-23.55L351.23-23.55Q348.73-23.55 347.28-21.48 345.83-19.4 345.63-14.75L345.63-14.75 356.68-14.75ZM372.44 0.65Q370.04 0.65 368.64-0.8 367.24-2.25 367.24-4.85L367.24-4.85 367.24-36.95 371.74-37.45 371.74-5Q371.74-3.05 373.34-3.05L373.34-3.05Q373.99-3.05 374.79-3.35L374.79-3.35 375.79-0.2Q374.19 0.65 372.44 0.65L372.44 0.65ZM390.04-26.95Q395.09-26.95 397.89-23.4 400.69-19.85 400.69-13.2L400.69-13.2Q400.69-6.8 397.84-3.08 394.99 0.65 389.99 0.65L389.99 0.65Q384.94 0.65 382.12-3 379.29-6.65 379.29-13.15L379.29-13.15Q379.29-19.7 382.14-23.33 384.99-26.95 390.04-26.95L390.04-26.95ZM390.04-23.35Q387.09-23.35 385.54-20.88 383.99-18.4 383.99-13.15L383.99-13.15Q383.99-2.9 389.99-2.9L389.99-2.9Q395.99-2.9 395.99-13.2L395.99-13.2Q395.99-18.45 394.49-20.9 392.99-23.35 390.04-23.35L390.04-23.35ZM418.75-26.95Q423.05-26.95 425.22-23.4 427.4-19.85 427.4-13.25L427.4-13.25Q427.4-6.85 424.97-3.1 422.55 0.65 418.2 0.65L418.2 0.65Q414.3 0.65 411.9-2.5L411.9-2.5 411.9 10 407.4 10.55 407.4-26.3 411.35-26.3 411.6-22.75Q414.3-26.95 418.75-26.95L418.75-26.95ZM417.15-2.95Q422.7-2.95 422.7-13.2L422.7-13.2Q422.7-18.55 421.42-20.98 420.15-23.4 417.55-23.4L417.55-23.4Q415.8-23.4 414.45-22.35 413.1-21.3 411.9-19.5L411.9-19.5 411.9-6.2Q413.95-2.95 417.15-2.95L417.15-2.95ZM452.65-13.95Q452.65-12.9 452.55-11.6L452.55-11.6 437.25-11.6Q437.45-7 439.1-4.98 440.75-2.95 443.6-2.95L443.6-2.95Q445.4-2.95 446.83-3.5 448.25-4.05 449.8-5.3L449.8-5.3 451.8-2.65Q448.1 0.65 443.4 0.65L443.4 0.65Q438.25 0.65 435.43-2.93 432.6-6.5 432.6-12.95L432.6-12.95Q432.6-19.4 435.3-23.18 438-26.95 442.8-26.95L442.8-26.95Q447.55-26.95 450.1-23.58 452.65-20.2 452.65-13.95L452.65-13.95ZM448.3-14.75L448.3-15.3Q448.3-23.55 442.85-23.55L442.85-23.55Q440.35-23.55 438.9-21.48 437.45-19.4 437.25-14.75L437.25-14.75 448.3-14.75ZM469.91-26.9Q471.21-26.9 472.16-26.6L472.16-26.6 471.41-22.25Q470.46-22.55 469.36-22.55L469.36-22.55Q467.16-22.55 465.78-20.8 464.41-19.05 463.61-15.45L463.61-15.45 463.61 0 459.11 0 459.11-26.3 463.01-26.3 463.36-21.1Q465.31-26.9 469.91-26.9L469.91-26.9Z" opacity="1" transform="matrix(1,0,0,1,0,0)" fill="#ffffff" class="undefined-text-1" data-fill-palette-color="secondary" id="text-1"></path></svg></g></svg></g></svg></g></svg></g></svg></g></svg></g></svg></g><g><path d="M0 123.6c0-68.262 55.338-123.6 123.6-123.6 52.399 0 97.182 32.606 115.166 78.635h-2.086c-17.883-44.934-61.773-76.695-113.08-76.695-67.191 0-121.66 54.469-121.66 121.66 0 67.191 54.469 121.66 121.66 121.66 51.308 0 95.198-31.761 113.08-76.695h2.086c-17.985 46.029-62.768 78.635-115.166 78.635-68.262 0-123.6-55.338-123.6-123.6z" fill="#ffffff" stroke="transparent" data-fill-palette-color="tertiary"></path></g></svg></g><defs></defs></svg><rect width="395.52" height="247.2" fill="none" stroke="none" visibility="hidden"></rect></g></svg></g></svg>